<svg class="rich-terminal" viewBox="0 0 994 660.0" xmlns="http://www.w3.org/2000/svg">
    <!-- Generated with Rich https://www.textualize.io -->
    <style>

    @font-face {
        font-family: "Fira Code";
        src: local("FiraCode-Regular"),
                url("https://cdnjs.cloudflare.com/ajax/libs/firacode/6.2.0/woff2/FiraCode-Regular.woff2") format("woff2"),
                url("https://cdnjs.cloudflare.com/ajax/libs/firacode/6.2.0/woff/FiraCode-Regular.woff") format("woff");
        font-style: normal;
        font-weight: 400;
    }
    @font-face {
        font-family: "Fira Code";
        src: local("FiraCode-Bold"),
                url("https://cdnjs.cloudflare.com/ajax/libs/firacode/6.2.0/woff2/FiraCode-Bold.woff2") format("woff2"),
                url("https://cdnjs.cloudflare.com/ajax/libs/firacode/6.2.0/woff/FiraCode-Bold.woff") format("woff");
        font-style: bold;
        font-weight: 700;
    }

    .terminal-2842583164-matrix {
        font-family: Fira Code, monospace;
        font-size: 20px;
        line-height: 24.4px;
        font-variant-east-asian: full-width;
    }

    .terminal-2842583164-title {
        font-size: 18px;
        font-weight: bold;
        font-family: arial;
    }

    .terminal-2842583164-r1 { fill: #e1e1e1 }
.terminal-2842583164-r2 { fill: #c5c8c6 }
.terminal-2842583164-r3 { fill: #e1e1e1;font-weight: bold }
.terminal-2842583164-r4 { fill: #b93c5b;font-weight: bold }
.terminal-2842583164-r5 { fill: #14191f }
.terminal-2842583164-r6 { fill: #e76580;font-weight: bold }
.terminal-2842583164-r7 { fill: #e4e5e6 }
.terminal-2842583164-r8 { fill: #dde8f3;font-weight: bold }
.terminal-2842583164-r9 { fill: #ddedf9 }
    </style>

    <defs>
    <clipPath id="terminal-2842583164-clip-terminal">
      <rect x="0" y="0" width="975.0" height="609.0" />
    </clipPath>
    <clipPath id="terminal-2842583164-line-0">
    <rect x="0" y="1.5" width="976" height="24.65"/>
            </clipPath>
<clipPath id="terminal-2842583164-line-1">
    <rect x="0" y="25.9" width="976" height="24.65"/>
            </clipPath>
<clipPath id="terminal-2842583164-line-2">
    <rect x="0" y="50.3" width="976" height="24.65"/>
            </clipPath>
<clipPath id="terminal-2842583164-line-3">
    <rect x="0" y="74.7" width="976" height="24.65"/>
            </clipPath>
<clipPath id="terminal-2842583164-line-4">
    <rect x="0" y="99.1" width="976" height="24.65"/>
            </clipPath>
<clipPath id="terminal-2842583164-line-5">
    <rect x="0" y="123.5" width="976" height="24.65"/>
            </clipPath>
<clipPath id="terminal-2842583164-line-6">
    <rect x="0" y="147.9" width="976" height="24.65"/>
            </clipPath>
<clipPath id="terminal-2842583164-line-7">
    <rect x="0" y="172.3" width="976" height="24.65"/>
            </clipPath>
<clipPath id="terminal-2842583164-line-8">
    <rect x="0" y="196.7" width="976" height="24.65"/>
            </clipPath>
<clipPath id="terminal-2842583164-line-9">
    <rect x="0" y="221.1" width="976" height="24.65"/>
            </clipPath>
<clipPath id="terminal-2842583164-line-10">
    <rect x="0" y="245.5" width="976" height="24.65"/>
            </clipPath>
<clipPath id="terminal-2842583164-line-11">
    <rect x="0" y="269.9" width="976" height="24.65"/>
            </clipPath>
<clipPath id="terminal-2842583164-line-12">
    <rect x="0" y="294.3" width="976" height="24.65"/>
            </clipPath>
<clipPath id="terminal-2842583164-line-13">
    <rect x="0" y="318.7" width="976" height="24.65"/>
            </clipPath>
<clipPath id="terminal-2842583164-line-14">
    <rect x="0" y="343.1" width="976" height="24.65"/>
            </clipPath>
<clipPath id="terminal-2842583164-line-15">
    <rect x="0" y="367.5" width="976" height="24.65"/>
            </clipPath>
<clipPath id="terminal-2842583164-line-16">
    <rect x="0" y="391.9" width="976" height="24.65"/>
            </clipPath>
<clipPath id="terminal-2842583164-line-17">
    <rect x="0" y="416.3" width="976" height="24.65"/>
            </clipPath>
<clipPath id="terminal-2842583164-line-18">
    <rect x="0" y="440.7" width="976" height="24.65"/>
            </clipPath>
<clipPath id="terminal-2842583164-line-19">
    <rect x="0" y="465.1" width="976" height="24.65"/>
            </clipPath>
<clipPath id="terminal-2842583164-line-20">
    <rect x="0" y="489.5" width="976" height="24.65"/>
            </clipPath>
<clipPath id="terminal-2842583164-line-21">
    <rect x="0" y="513.9" width="976" height="24.65"/>
            </clipPath>
<clipPath id="terminal-2842583164-line-22">
    <rect x="0" y="538.3" width="976" height="24.65"/>
            </clipPath>
<clipPath id="terminal-2842583164-line-23">
    <rect x="0" y="562.7" width="976" height="24.65"/>
            </clipPath>
    </defs>

    <rect fill="#292929" stroke="rgba(255,255,255,0.35)" stroke-width="1" x="1" y="1" width="992" height="658" rx="8"/><text class="terminal-2842583164-title" fill="#c5c8c6" text-anchor="middle" x="496" y="27">PruneEnvironments</text>
            <g transform="translate(26,22)">
            <circle cx="0" cy="0" r="7" fill="#ff5f57"/>
            <circle cx="22" cy="0" r="7" fill="#febc2e"/>
            <circle cx="44" cy="0" r="7" fill="#28c840"/>
            </g>
        
    <g transform="translate(9, 41)" clip-path="url(#terminal-2842583164-clip-terminal)">
    <rect fill="#1e1e1e" x="0" y="1.5" width="951.6" height="24.65" shape-rendering="crispEdges"/><rect fill="#23568b" x="951.6" y="1.5" width="24.4" height="24.65" shape-rendering="crispEdges"/><rect fill="#1e1e1e" x="0" y="25.9" width="158.6" height="24.65" shape-rendering="crispEdges"/><rect fill="#1e1e1e" x="158.6" y="25.9" width="634.4" height="24.65" shape-rendering="crispEdges"/><rect fill="#1e1e1e" x="793" y="25.9" width="158.6" height="24.65" shape-rendering="crispEdges"/><rect fill="#23568b" x="951.6" y="25.9" width="24.4" height="24.65" shape-rendering="crispEdges"/><rect fill="#1e1e1e" x="0" y="50.3" width="951.6" height="24.65" shape-rendering="crispEdges"/><rect fill="#23568b" x="951.6" y="50.3" width="24.4" height="24.65" shape-rendering="crispEdges"/><rect fill="#34393f" x="0" y="74.7" width="951.6" height="24.65" shape-rendering="crispEdges"/><rect fill="#23568b" x="951.6" y="74.7" width="24.4" height="24.65" shape-rendering="crispEdges"/><rect fill="#34393f" x="0" y="99.1" width="24.4" height="24.65" shape-rendering="crispEdges"/><rect fill="#34393f" x="24.4" y="99.1" width="207.4" height="24.65" shape-rendering="crispEdges"/><rect fill="#34393f" x="231.8" y="99.1" width="244" height="24.65" shape-rendering="crispEdges"/><rect fill="#34393f" x="475.8" y="99.1" width="146.4" height="24.65" shape-rendering="crispEdges"/><rect fill="#34393f" x="622.2" y="99.1" width="73.2" height="24.65" shape-rendering="crispEdges"/><rect fill="#34393f" x="695.4" y="99.1" width="85.4" height="24.65" shape-rendering="crispEdges"/><rect fill="#34393f" x="780.8" y="99.1" width="0" height="24.65" shape-rendering="crispEdges"/><rect fill="#34393f" x="780.8" y="99.1" width="36.6" height="24.65" shape-rendering="crispEdges"/><rect fill="#34393f" x="817.4" y="99.1" width="109.8" height="24.65" shape-rendering="crispEdges"/><rect fill="#34393f" x="927.2" y="99.1" width="24.4" height="24.65" shape-rendering="crispEdges"/><rect fill="#23568b" x="951.6" y="99.1" width="24.4" height="24.65" shape-rendering="crispEdges"/><rect fill="#34393f" x="0" y="123.5" width="951.6" height="24.65" shape-rendering="crispEdges"/><rect fill="#23568b" x="951.6" y="123.5" width="24.4" height="24.65" shape-rendering="crispEdges"/><rect fill="#34393f" x="0" y="147.9" width="951.6" height="24.65" shape-rendering="crispEdges"/><rect fill="#23568b" x="951.6" y="147.9" width="24.4" height="24.65" shape-rendering="crispEdges"/><rect fill="#34393f" x="0" y="172.3" width="24.4" height="24.65" shape-rendering="crispEdges"/><rect fill="#34393f" x="24.4" y="172.3" width="207.4" height="24.65" shape-rendering="crispEdges"/><rect fill="#34393f" x="231.8" y="172.3" width="244" height="24.65" shape-rendering="crispEdges"/><rect fill="#34393f" x="475.8" y="172.3" width="146.4" height="24.65" shape-rendering="crispEdges"/><rect fill="#34393f" x="622.2" y="172.3" width="73.2" height="24.65" shape-rendering="crispEdges"/><rect fill="#34393f" x="695.4" y="172.3" width="97.6" height="24.65" shape-rendering="crispEdges"/><rect fill="#34393f" x="793" y="172.3" width="36.6" height="24.65" shape-rendering="crispEdges"/><rect fill="#34393f" x="829.6" y="172.3" width="97.6" height="24.65" shape-rendering="crispEdges"/><rect fill="#34393f" x="927.2" y="172.3" width="24.4" height="24.65" shape-rendering="crispEdges"/><rect fill="#23568b" x="951.6" y="172.3" width="24.4" height="24.65" shape-rendering="crispEdges"/><rect fill="#34393f" x="0" y="196.7" width="951.6" height="24.65" shape-rendering="crispEdges"/><rect fill="#14191f" x="951.6" y="196.7" width="24.4" height="24.65" shape-rendering="crispEdges"/><rect fill="#0053aa" x="0" y="221.1" width="951.6" height="24.65" shape-rendering="crispEdges"/><rect fill="#14191f" x="951.6" y="221.1" width="24.4" height="24.65" shape-rendering="crispEdges"/><rect fill="#0053aa" x="0" y="245.5" width="24.4" height="24.65" shape-rendering="crispEdges"/><rect fill="#0053aa" x="24.4" y="245.5" width="207.4" height="24.65" shape-rendering="crispEdges"/><rect fill="#0053aa" x="231.8" y="245.5" width="244" height="24.65" shape-rendering="crispEdges"/><rect fill="#0053aa" x="475.8" y="245.5" width="146.4" height="24.65" shape-rendering="crispEdges"/><rect fill="#0053aa" x="622.2" y="245.5" width="73.2" height="24.65" shape-rendering="crispEdges"/><rect fill="#0053aa" x="695.4" y="245.5" width="97.6" height="24.65" shape-rendering="crispEdges"/><rect fill="#0053aa" x="793" y="245.5" width="36.6" height="24.65" shape-rendering="crispEdges"/><rect fill="#0053aa" x="829.6" y="245.5" width="97.6" height="24.65" shape-rendering="crispEdges"/><rect fill="#0053aa" x="927.2" y="245.5" width="24.4" height="24.65" shape-rendering="crispEdges"/><rect fill="#14191f" x="951.6" y="245.5" width="24.4" height="24.65" shape-rendering="crispEdges"/><rect fill="#0053aa" x="0" y="269.9" width="951.6" height="24.65" shape-rendering="crispEdges"/><rect fill="#14191f" x="951.6" y="269.9" width="24.4" height="24.65" shape-rendering="crispEdges"/><rect fill="#34393f" x="0" y="294.3" width="951.6" height="24.65" shape-rendering="crispEdges"/><rect fill="#14191f" x="951.6" y="294.3" width="24.4" height="24.65" shape-rendering="crispEdges"/><rect fill="#34393f" x="0" y="318.7" width="24.4" height="24.65" shape-rendering="crispEdges"/><rect fill="#34393f" x="24.4" y="318.7" width="134.2" height="24.65" shape-rendering="crispEdges"/><rect fill="#34393f" x="158.6" y="318.7" width="317.2" height="24.65" shape-rendering="crispEdges"/><rect fill="#34393f" x="475.8" y="318.7" width="146.4" height="24.65" shape-rendering="crispEdges"/><rect fill="#34393f" x="622.2" y="318.7" width="73.2" height="24.65" shape-rendering="crispEdges"/><rect fill="#34393f" x="695.4" y="318.7" width="0" height="24.65" shape-rendering="crispEdges"/><rect fill="#34393f" x="695.4" y="318.7" width="36.6" height="24.65" shape-rendering="crispEdges"/><rect fill="#34393f" x="732" y="318.7" width="195.2" height="24.65" shape-rendering="crispEdges"/><rect fill="#34393f" x="927.2" y="318.7" width="24.4" height="24.65" shape-rendering="crispEdges"/><rect fill="#14191f" x="951.6" y="318.7" width="24.4" height="24.65" shape-rendering="crispEdges"/><rect fill="#34393f" x="0" y="343.1" width="951.6" height="24.65" shape-rendering="crispEdges"/><rect fill="#14191f" x="951.6" y="343.1" width="24.4" height="24.65" shape-rendering="crispEdges"/><rect fill="#34393f" x="0" y="367.5" width="951.6" height="24.65" shape-rendering="crispEdges"/><rect fill="#14191f" x="951.6" y="367.5" width="24.4" height="24.65" shape-rendering="crispEdges"/><rect fill="#34393f" x="0" y="391.9" width="24.4" height="24.65" shape-rendering="crispEdges"/><rect fill="#34393f" x="24.4" y="391.9" width="73.2" height="24.65" shape-rendering="crispEdges"/><rect fill="#34393f" x="97.6" y="391.9" width="378.2" height="24.65" shape-rendering="crispEdges"/><rect fill="#34393f" x="475.8" y="391.9" width="146.4" height="24.65" shape-rendering="crispEdges"/><rect fill="#34393f" x="622.2" y="391.9" width="73.2" height="24.65" shape-rendering="crispEdges"/><rect fill="#34393f" x="695.4" y="391.9" width="0" height="24.65" shape-rendering="crispEdges"/><rect fill="#34393f" x="695.4" y="391.9" width="36.6" height="24.65" shape-rendering="crispEdges"/><rect fill="#34393f" x="732" y="391.9" width="195.2" height="24.65" shape-rendering="crispEdges"/><rect fill="#34393f" x="927.2" y="391.9" width="24.4" height="24.65" shape-rendering="crispEdges"/><rect fill="#14191f" x="951.6" y="391.9" width="24.4" height="24.65" shape-rendering="crispEdges"/><rect fill="#34393f" x="0" y="416.3" width="951.6" height="24.65" shape-rendering="crispEdges"/><rect fill="#14191f" x="951.6" y="416.3" width="24.4" height="24.65" shape-rendering="crispEdges"/><rect fill="#34393f" x="0" y="440.7" width="951.6" height="24.65" shape-rendering="crispEdges"/><rect fill="#14191f" x="951.6" y="440.7" width="24.4" height="24.65" shape-rendering="crispEdges"/><rect fill="#34393f" x="0" y="465.1" width="24.4" height="24.65" shape-rendering="crispEdges"/><rect fill="#34393f" x="24.4" y="465.1" width="109.8" height="24.65" shape-rendering="crispEdges"/><rect fill="#34393f" x="134.2" y="465.1" width="341.6" height="24.65" shape-rendering="crispEdges"/><rect fill="#34393f" x="475.8" y="465.1" width="146.4" height="24.65" shape-rendering="crispEdges"/><rect fill="#34393f" x="622.2" y="465.1" width="73.2" height="24.65" shape-rendering="crispEdges"/><rect fill="#34393f" x="695.4" y="465.1" width="0" height="24.65" shape-rendering="crispEdges"/><rect fill="#34393f" x="695.4" y="465.1" width="36.6" height="24.65" shape-rendering="crispEdges"/><rect fill="#34393f" x="732" y="465.1" width="195.2" height="24.65" shape-rendering="crispEdges"/><rect fill="#34393f" x="927.2" y="465.1" width="24.4" height="24.65" shape-rendering="crispEdges"/><rect fill="#14191f" x="951.6" y="465.1" width="24.4" height="24.65" shape-rendering="crispEdges"/><rect fill="#34393f" x="0" y="489.5" width="951.6" height="24.65" shape-rendering="crispEdges"/><rect fill="#14191f" x="951.6" y="489.5" width="24.4" height="24.65" shape-rendering="crispEdges"/><rect fill="#34393f" x="0" y="513.9" width="951.6" height="24.65" shape-rendering="crispEdges"/><rect fill="#14191f" x="951.6" y="513.9" width="24.4" height="24.65" shape-rendering="crispEdges"/><rect fill="#34393f" x="0" y="538.3" width="24.4" height="24.65" shape-rendering="crispEdges"/><rect fill="#34393f" x="24.4" y="538.3" width="97.6" height="24.65" shape-rendering="crispEdges"/><rect fill="#34393f" x="122" y="538.3" width="353.8" height="24.65" shape-rendering="crispEdges"/><rect fill="#34393f" x="475.8" y="538.3" width="146.4" height="24.65" shape-rendering="crispEdges"/><rect fill="#34393f" x="622.2" y="538.3" width="73.2" height="24.65" shape-rendering="crispEdges"/><rect fill="#34393f" x="695.4" y="538.3" width="0" height="24.65" shape-rendering="crispEdges"/><rect fill="#34393f" x="695.4" y="538.3" width="36.6" height="24.65" shape-rendering="crispEdges"/><rect fill="#34393f" x="732" y="538.3" width="195.2" height="24.65" shape-rendering="crispEdges"/><rect fill="#34393f" x="927.2" y="538.3" width="24.4" height="24.65" shape-rendering="crispEdges"/><rect fill="#14191f" x="951.6" y="538.3" width="24.4" height="24.65" shape-rendering="crispEdges"/><rect fill="#34393f" x="0" y="562.7" width="951.6" height="24.65" shape-rendering="crispEdges"/><rect fill="#14191f" x="951.6" y="562.7" width="24.4" height="24.65" shape-rendering="crispEdges"/><rect fill="#0053aa" x="0" y="587.1" width="36.6" height="24.65" shape-rendering="crispEdges"/><rect fill="#0178d4" x="36.6" y="587.1" width="73.2" height="24.65" shape-rendering="crispEdges"/><rect fill="#0053aa" x="109.8" y="587.1" width="36.6" height="24.65" shape-rendering="crispEdges"/><rect fill="#0178d4" x="146.4" y="587.1" width="97.6" height="24.65" shape-rendering="crispEdges"/><rect fill="#0178d4" x="244" y="587.1" width="707.6" height="24.65" shape-rendering="crispEdges"/><rect fill="#14191f" x="951.6" y="587.1" width="24.4" height="24.65" shape-rendering="crispEdges"/>
    <g class="terminal-2842583164-matrix">
    <text class="terminal-2842583164-r2" x="976" y="20" textLength="12.2" clip-path="url(#terminal-2842583164-line-0)">
</text><text class="terminal-2842583164-r3" x="158.6" y="44.4" textLength="634.4" clip-path="url(#terminal-2842583164-line-1)">Please&#160;select&#160;an&#160;environment&#160;and&#160;press&#160;&#x27;D&#x27;&#160;to&#160;delete</text><text class="terminal-2842583164-r2" x="976" y="44.4" textLength="12.2" clip-path="url(#terminal-2842583164-line-1)">
</text><text class="terminal-2842583164-r2" x="976" y="68.8" textLength="12.2" clip-path="url(#terminal-2842583164-line-2)">
</text><text class="terminal-2842583164-r2" x="976" y="93.2" textLength="12.2" clip-path="url(#terminal-2842583164-line-3)">
</text><text class="terminal-2842583164-r4" x="24.4" y="117.6" textLength="207.4" clip-path="url(#terminal-2842583164-line-4)">another_old_env_1</text><text class="terminal-2842583164-r4" x="475.8" y="117.6" textLength="146.4" clip-path="url(#terminal-2842583164-line-4)">Jan&#160;02,&#160;2024</text><text class="terminal-2842583164-r4" x="695.4" y="117.6" textLength="85.4" clip-path="url(#terminal-2842583164-line-4)">Deleted</text><text class="terminal-2842583164-r2" x="976" y="117.6" textLength="12.2" clip-path="url(#terminal-2842583164-line-4)">
</text><text class="terminal-2842583164-r2" x="976" y="142" textLength="12.2" clip-path="url(#terminal-2842583164-line-5)">
</text><text class="terminal-2842583164-r2" x="976" y="166.4" textLength="12.2" clip-path="url(#terminal-2842583164-line-6)">
</text><text class="terminal-2842583164-r4" x="24.4" y="190.8" textLength="207.4" clip-path="url(#terminal-2842583164-line-7)">another_old_env_2</text><text class="terminal-2842583164-r4" x="475.8" y="190.8" textLength="146.4" clip-path="url(#terminal-2842583164-line-7)">Jan&#160;02,&#160;2024</text><text class="terminal-2842583164-r4" x="695.4" y="190.8" textLength="97.6" clip-path="url(#terminal-2842583164-line-7)">Deleting</text><text class="terminal-2842583164-r4" x="793" y="190.8" textLength="36.6" clip-path="url(#terminal-2842583164-line-7)">...</text><text class="terminal-2842583164-r5" x="951.6" y="190.8" textLength="24.4" clip-path="url(#terminal-2842583164-line-7)">▇▇</text><text class="terminal-2842583164-r2" x="976" y="190.8" textLength="12.2" clip-path="url(#terminal-2842583164-line-7)">
</text><text class="terminal-2842583164-r2" x="976" y="215.2" textLength="12.2" clip-path="url(#terminal-2842583164-line-8)">
</text><text class="terminal-2842583164-r2" x="976" y="239.6" textLength="12.2" clip-path="url(#terminal-2842583164-line-9)">
</text><text class="terminal-2842583164-r6" x="24.4" y="264" textLength="207.4" clip-path="url(#terminal-2842583164-line-10)">another_old_env_3</text><text class="terminal-2842583164-r6" x="475.8" y="264" textLength="146.4" clip-path="url(#terminal-2842583164-line-10)">Jan&#160;02,&#160;2024</text><text class="terminal-2842583164-r6" x="695.4" y="264" textLength="97.6" clip-path="url(#terminal-2842583164-line-10)">Deleting</text><text class="terminal-2842583164-r6" x="793" y="264" textLength="36.6" clip-path="url(#terminal-2842583164-line-10)">...</text><text class="terminal-2842583164-r2" x="976" y="264" textLength="12.2" clip-path="url(#terminal-2842583164-line-10)">
</text><text class="terminal-2842583164-r2" x="976" y="288.4" textLength="12.2" clip-path="url(#terminal-2842583164-line-11)">
</text><text class="terminal-2842583164-r2" x="976" y="312.8" textLength="12.2" clip-path="url(#terminal-2842583164-line-12)">
</text><text class="terminal-2842583164-r7" x="24.4" y="337.2" textLength="134.2" clip-path="url(#terminal-2842583164-line-13)">beoordeling</text><text class="terminal-2842583164-r7" x="475.8" y="337.2" textLength="146.4" clip-path="url(#terminal-2842583164-line-13)">Nov&#160;07,&#160;2023</text><text class="terminal-2842583164-r2" x="976" y="337.2" textLength="12.2" clip-path="url(#terminal-2842583164-line-13)">
</text><text class="terminal-2842583164-r2" x="976" y="361.6" textLength="12.2" clip-path="url(#terminal-2842583164-line-14)">
</text><text class="terminal-2842583164-r2" x="976" y="386" textLength="12.2" clip-path="url(#terminal-2842583164-line-15)">
</text><text class="terminal-2842583164-r7" x="24.4" y="410.4" textLength="73.2" clip-path="url(#terminal-2842583164-line-16)">canvas</text><text class="terminal-2842583164-r7" x="475.8" y="410.4" textLength="146.4" clip-path="url(#terminal-2842583164-line-16)">Sep&#160;22,&#160;2023</text><text class="terminal-2842583164-r2" x="976" y="410.4" textLength="12.2" clip-path="url(#terminal-2842583164-line-16)">
</text><text class="terminal-2842583164-r2" x="976" y="434.8" textLength="12.2" clip-path="url(#terminal-2842583164-line-17)">
</text><text class="terminal-2842583164-r2" x="976" y="459.2" textLength="12.2" clip-path="url(#terminal-2842583164-line-18)">
</text><text class="terminal-2842583164-r7" x="24.4" y="483.6" textLength="109.8" clip-path="url(#terminal-2842583164-line-19)">canvasapi</text><text class="terminal-2842583164-r7" x="475.8" y="483.6" textLength="146.4" clip-path="url(#terminal-2842583164-line-19)">Oct&#160;21,&#160;2023</text><text class="terminal-2842583164-r2" x="976" y="483.6" textLength="12.2" clip-path="url(#terminal-2842583164-line-19)">
</text><text class="terminal-2842583164-r2" x="976" y="508" textLength="12.2" clip-path="url(#terminal-2842583164-line-20)">
</text><text class="terminal-2842583164-r2" x="976" y="532.4" textLength="12.2" clip-path="url(#terminal-2842583164-line-21)">
</text><text class="terminal-2842583164-r7" x="24.4" y="556.8" textLength="97.6" clip-path="url(#terminal-2842583164-line-22)">datanose</text><text class="terminal-2842583164-r7" x="475.8" y="556.8" textLength="146.4" clip-path="url(#terminal-2842583164-line-22)">Oct&#160;30,&#160;2023</text><text class="terminal-2842583164-r2" x="976" y="556.8" textLength="12.2" clip-path="url(#terminal-2842583164-line-22)">
</text><text class="terminal-2842583164-r2" x="976" y="581.2" textLength="12.2" clip-path="url(#terminal-2842583164-line-23)">
</text><text class="terminal-2842583164-r8" x="0" y="605.6" textLength="36.6" clip-path="url(#terminal-2842583164-line-24)">&#160;Q&#160;</text><text class="terminal-2842583164-r9" x="36.6" y="605.6" textLength="73.2" clip-path="url(#terminal-2842583164-line-24)">&#160;Quit&#160;</text><text class="terminal-2842583164-r8" x="109.8" y="605.6" textLength="36.6" clip-path="url(#terminal-2842583164-line-24)">&#160;D&#160;</text><text class="terminal-2842583164-r9" x="146.4" y="605.6" textLength="97.6" clip-path="url(#terminal-2842583164-line-24)">&#160;Delete&#160;</text>
    </g>
    </g>
</svg>
