<svg class="rich-terminal" viewBox="0 0 994 660.0" xmlns="http://www.w3.org/2000/svg">
    <!-- Generated with Rich https://www.textualize.io -->
    <style>

    @font-face {
        font-family: "Fira Code";
        src: local("FiraCode-Regular"),
                url("https://cdnjs.cloudflare.com/ajax/libs/firacode/6.2.0/woff2/FiraCode-Regular.woff2") format("woff2"),
                url("https://cdnjs.cloudflare.com/ajax/libs/firacode/6.2.0/woff/FiraCode-Regular.woff") format("woff");
        font-style: normal;
        font-weight: 400;
    }
    @font-face {
        font-family: "Fira Code";
        src: local("FiraCode-Bold"),
                url("https://cdnjs.cloudflare.com/ajax/libs/firacode/6.2.0/woff2/FiraCode-Bold.woff2") format("woff2"),
                url("https://cdnjs.cloudflare.com/ajax/libs/firacode/6.2.0/woff/FiraCode-Bold.woff") format("woff");
        font-style: bold;
        font-weight: 700;
    }

    .terminal-295116995-matrix {
        font-family: Fira Code, monospace;
        font-size: 20px;
        line-height: 24.4px;
        font-variant-east-asian: full-width;
    }

    .terminal-295116995-title {
        font-size: 18px;
        font-weight: bold;
        font-family: arial;
    }

    .terminal-295116995-r1 { fill: #c5c8c6 }
.terminal-295116995-r2 { fill: #e0e0e0 }
.terminal-295116995-r3 { fill: #e0e0e0;font-weight: bold }
.terminal-295116995-r4 { fill: #1e1e1e }
.terminal-295116995-r5 { fill: #b93c5b;font-weight: bold }
.terminal-295116995-r6 { fill: #000000 }
.terminal-295116995-r7 { fill: #ddedf9;font-weight: bold }
.terminal-295116995-r8 { fill: #ffa62b;font-weight: bold }
.terminal-295116995-r9 { fill: #495259 }
    </style>

    <defs>
    <clipPath id="terminal-295116995-clip-terminal">
      <rect x="0" y="0" width="975.0" height="609.0" />
    </clipPath>
    <clipPath id="terminal-295116995-line-0">
    <rect x="0" y="1.5" width="976" height="24.65"/>
            </clipPath>
<clipPath id="terminal-295116995-line-1">
    <rect x="0" y="25.9" width="976" height="24.65"/>
            </clipPath>
<clipPath id="terminal-295116995-line-2">
    <rect x="0" y="50.3" width="976" height="24.65"/>
            </clipPath>
<clipPath id="terminal-295116995-line-3">
    <rect x="0" y="74.7" width="976" height="24.65"/>
            </clipPath>
<clipPath id="terminal-295116995-line-4">
    <rect x="0" y="99.1" width="976" height="24.65"/>
            </clipPath>
<clipPath id="terminal-295116995-line-5">
    <rect x="0" y="123.5" width="976" height="24.65"/>
            </clipPath>
<clipPath id="terminal-295116995-line-6">
    <rect x="0" y="147.9" width="976" height="24.65"/>
            </clipPath>
<clipPath id="terminal-295116995-line-7">
    <rect x="0" y="172.3" width="976" height="24.65"/>
            </clipPath>
<clipPath id="terminal-295116995-line-8">
    <rect x="0" y="196.7" width="976" height="24.65"/>
            </clipPath>
<clipPath id="terminal-295116995-line-9">
    <rect x="0" y="221.1" width="976" height="24.65"/>
            </clipPath>
<clipPath id="terminal-295116995-line-10">
    <rect x="0" y="245.5" width="976" height="24.65"/>
            </clipPath>
<clipPath id="terminal-295116995-line-11">
    <rect x="0" y="269.9" width="976" height="24.65"/>
            </clipPath>
<clipPath id="terminal-295116995-line-12">
    <rect x="0" y="294.3" width="976" height="24.65"/>
            </clipPath>
<clipPath id="terminal-295116995-line-13">
    <rect x="0" y="318.7" width="976" height="24.65"/>
            </clipPath>
<clipPath id="terminal-295116995-line-14">
    <rect x="0" y="343.1" width="976" height="24.65"/>
            </clipPath>
<clipPath id="terminal-295116995-line-15">
    <rect x="0" y="367.5" width="976" height="24.65"/>
            </clipPath>
<clipPath id="terminal-295116995-line-16">
    <rect x="0" y="391.9" width="976" height="24.65"/>
            </clipPath>
<clipPath id="terminal-295116995-line-17">
    <rect x="0" y="416.3" width="976" height="24.65"/>
            </clipPath>
<clipPath id="terminal-295116995-line-18">
    <rect x="0" y="440.7" width="976" height="24.65"/>
            </clipPath>
<clipPath id="terminal-295116995-line-19">
    <rect x="0" y="465.1" width="976" height="24.65"/>
            </clipPath>
<clipPath id="terminal-295116995-line-20">
    <rect x="0" y="489.5" width="976" height="24.65"/>
            </clipPath>
<clipPath id="terminal-295116995-line-21">
    <rect x="0" y="513.9" width="976" height="24.65"/>
            </clipPath>
<clipPath id="terminal-295116995-line-22">
    <rect x="0" y="538.3" width="976" height="24.65"/>
            </clipPath>
<clipPath id="terminal-295116995-line-23">
    <rect x="0" y="562.7" width="976" height="24.65"/>
            </clipPath>
    </defs>

    <rect fill="#292929" stroke="rgba(255,255,255,0.35)" stroke-width="1" x="1" y="1" width="992" height="658" rx="8"/><text class="terminal-295116995-title" fill="#c5c8c6" text-anchor="middle" x="496" y="27">PruneEnvironments</text>
            <g transform="translate(26,22)">
            <circle cx="0" cy="0" r="7" fill="#ff5f57"/>
            <circle cx="22" cy="0" r="7" fill="#febc2e"/>
            <circle cx="44" cy="0" r="7" fill="#28c840"/>
            </g>
        
    <g transform="translate(9, 41)" clip-path="url(#terminal-295116995-clip-terminal)">
    <rect fill="#242f38" x="0" y="1.5" width="12.2" height="24.65" shape-rendering="crispEdges"/><rect fill="#242f38" x="12.2" y="1.5" width="12.2" height="24.65" shape-rendering="crispEdges"/><rect fill="#242f38" x="24.4" y="1.5" width="61" height="24.65" shape-rendering="crispEdges"/><rect fill="#242f38" x="85.4" y="1.5" width="12.2" height="24.65" shape-rendering="crispEdges"/><rect fill="#242f38" x="97.6" y="1.5" width="268.4" height="24.65" shape-rendering="crispEdges"/><rect fill="#242f38" x="366" y="1.5" width="207.4" height="24.65" shape-rendering="crispEdges"/><rect fill="#242f38" x="573.4" y="1.5" width="280.6" height="24.65" shape-rendering="crispEdges"/><rect fill="#242f38" x="854" y="1.5" width="12.2" height="24.65" shape-rendering="crispEdges"/><rect fill="#242f38" x="866.2" y="1.5" width="0" height="24.65" shape-rendering="crispEdges"/><rect fill="#242f38" x="866.2" y="1.5" width="97.6" height="24.65" shape-rendering="crispEdges"/><rect fill="#242f38" x="963.8" y="1.5" width="12.2" height="24.65" shape-rendering="crispEdges"/><rect fill="#121212" x="0" y="25.9" width="976" height="24.65" shape-rendering="crispEdges"/><rect fill="#121212" x="0" y="50.3" width="24.4" height="24.65" shape-rendering="crispEdges"/><rect fill="#121212" x="24.4" y="50.3" width="927.2" height="24.65" shape-rendering="crispEdges"/><rect fill="#121212" x="951.6" y="50.3" width="24.4" height="24.65" shape-rendering="crispEdges"/><rect fill="#121212" x="0" y="74.7" width="976" height="24.65" shape-rendering="crispEdges"/><rect fill="#272727" x="0" y="99.1" width="951.6" height="24.65" shape-rendering="crispEdges"/><rect fill="#003054" x="951.6" y="99.1" width="24.4" height="24.65" shape-rendering="crispEdges"/><rect fill="#272727" x="0" y="123.5" width="24.4" height="24.65" shape-rendering="crispEdges"/><rect fill="#272727" x="24.4" y="123.5" width="231.8" height="24.65" shape-rendering="crispEdges"/><rect fill="#272727" x="256.2" y="123.5" width="219.6" height="24.65" shape-rendering="crispEdges"/><rect fill="#272727" x="475.8" y="123.5" width="146.4" height="24.65" shape-rendering="crispEdges"/><rect fill="#272727" x="622.2" y="123.5" width="73.2" height="24.65" shape-rendering="crispEdges"/><rect fill="#272727" x="695.4" y="123.5" width="85.4" height="24.65" shape-rendering="crispEdges"/><rect fill="#272727" x="780.8" y="123.5" width="0" height="24.65" shape-rendering="crispEdges"/><rect fill="#272727" x="780.8" y="123.5" width="36.6" height="24.65" shape-rendering="crispEdges"/><rect fill="#272727" x="817.4" y="123.5" width="109.8" height="24.65" shape-rendering="crispEdges"/><rect fill="#272727" x="927.2" y="123.5" width="24.4" height="24.65" shape-rendering="crispEdges"/><rect fill="#003054" x="951.6" y="123.5" width="24.4" height="24.65" shape-rendering="crispEdges"/><rect fill="#272727" x="0" y="147.9" width="951.6" height="24.65" shape-rendering="crispEdges"/><rect fill="#003054" x="951.6" y="147.9" width="24.4" height="24.65" shape-rendering="crispEdges"/><rect fill="#272727" x="0" y="172.3" width="951.6" height="24.65" shape-rendering="crispEdges"/><rect fill="#003054" x="951.6" y="172.3" width="24.4" height="24.65" shape-rendering="crispEdges"/><rect fill="#272727" x="0" y="196.7" width="24.4" height="24.65" shape-rendering="crispEdges"/><rect fill="#272727" x="24.4" y="196.7" width="183" height="24.65" shape-rendering="crispEdges"/><rect fill="#272727" x="207.4" y="196.7" width="268.4" height="24.65" shape-rendering="crispEdges"/><rect fill="#272727" x="475.8" y="196.7" width="146.4" height="24.65" shape-rendering="crispEdges"/><rect fill="#272727" x="622.2" y="196.7" width="73.2" height="24.65" shape-rendering="crispEdges"/><rect fill="#272727" x="695.4" y="196.7" width="97.6" height="24.65" shape-rendering="crispEdges"/><rect fill="#272727" x="793" y="196.7" width="36.6" height="24.65" shape-rendering="crispEdges"/><rect fill="#272727" x="829.6" y="196.7" width="97.6" height="24.65" shape-rendering="crispEdges"/><rect fill="#272727" x="927.2" y="196.7" width="24.4" height="24.65" shape-rendering="crispEdges"/><rect fill="#003054" x="951.6" y="196.7" width="24.4" height="24.65" shape-rendering="crispEdges"/><rect fill="#272727" x="0" y="221.1" width="951.6" height="24.65" shape-rendering="crispEdges"/><rect fill="#000000" x="951.6" y="221.1" width="24.4" height="24.65" shape-rendering="crispEdges"/><rect fill="#0178d4" x="0" y="245.5" width="951.6" height="24.65" shape-rendering="crispEdges"/><rect fill="#000000" x="951.6" y="245.5" width="24.4" height="24.65" shape-rendering="crispEdges"/><rect fill="#0178d4" x="0" y="269.9" width="24.4" height="24.65" shape-rendering="crispEdges"/><rect fill="#0178d4" x="24.4" y="269.9" width="231.8" height="24.65" shape-rendering="crispEdges"/><rect fill="#0178d4" x="256.2" y="269.9" width="219.6" height="24.65" shape-rendering="crispEdges"/><rect fill="#0178d4" x="475.8" y="269.9" width="146.4" height="24.65" shape-rendering="crispEdges"/><rect fill="#0178d4" x="622.2" y="269.9" width="73.2" height="24.65" shape-rendering="crispEdges"/><rect fill="#0178d4" x="695.4" y="269.9" width="0" height="24.65" shape-rendering="crispEdges"/><rect fill="#0178d4" x="695.4" y="269.9" width="36.6" height="24.65" shape-rendering="crispEdges"/><rect fill="#0178d4" x="732" y="269.9" width="195.2" height="24.65" shape-rendering="crispEdges"/><rect fill="#0178d4" x="927.2" y="269.9" width="24.4" height="24.65" shape-rendering="crispEdges"/><rect fill="#000000" x="951.6" y="269.9" width="24.4" height="24.65" shape-rendering="crispEdges"/><rect fill="#0178d4" x="0" y="294.3" width="951.6" height="24.65" shape-rendering="crispEdges"/><rect fill="#000000" x="951.6" y="294.3" width="24.4" height="24.65" shape-rendering="crispEdges"/><rect fill="#272727" x="0" y="318.7" width="951.6" height="24.65" shape-rendering="crispEdges"/><rect fill="#000000" x="951.6" y="318.7" width="24.4" height="24.65" shape-rendering="crispEdges"/><rect fill="#272727" x="0" y="343.1" width="24.4" height="24.65" shape-rendering="crispEdges"/><rect fill="#272727" x="24.4" y="343.1" width="97.6" height="24.65" shape-rendering="crispEdges"/><rect fill="#272727" x="122" y="343.1" width="353.8" height="24.65" shape-rendering="crispEdges"/><rect fill="#272727" x="475.8" y="343.1" width="146.4" height="24.65" shape-rendering="crispEdges"/><rect fill="#272727" x="622.2" y="343.1" width="73.2" height="24.65" shape-rendering="crispEdges"/><rect fill="#272727" x="695.4" y="343.1" width="0" height="24.65" shape-rendering="crispEdges"/><rect fill="#272727" x="695.4" y="343.1" width="36.6" height="24.65" shape-rendering="crispEdges"/><rect fill="#272727" x="732" y="343.1" width="195.2" height="24.65" shape-rendering="crispEdges"/><rect fill="#272727" x="927.2" y="343.1" width="24.4" height="24.65" shape-rendering="crispEdges"/><rect fill="#000000" x="951.6" y="343.1" width="24.4" height="24.65" shape-rendering="crispEdges"/><rect fill="#272727" x="0" y="367.5" width="951.6" height="24.65" shape-rendering="crispEdges"/><rect fill="#000000" x="951.6" y="367.5" width="24.4" height="24.65" shape-rendering="crispEdges"/><rect fill="#272727" x="0" y="391.9" width="951.6" height="24.65" shape-rendering="crispEdges"/><rect fill="#000000" x="951.6" y="391.9" width="24.4" height="24.65" shape-rendering="crispEdges"/><rect fill="#272727" x="0" y="416.3" width="24.4" height="24.65" shape-rendering="crispEdges"/><rect fill="#272727" x="24.4" y="416.3" width="48.8" height="24.65" shape-rendering="crispEdges"/><rect fill="#272727" x="73.2" y="416.3" width="402.6" height="24.65" shape-rendering="crispEdges"/><rect fill="#272727" x="475.8" y="416.3" width="146.4" height="24.65" shape-rendering="crispEdges"/><rect fill="#272727" x="622.2" y="416.3" width="73.2" height="24.65" shape-rendering="crispEdges"/><rect fill="#272727" x="695.4" y="416.3" width="0" height="24.65" shape-rendering="crispEdges"/><rect fill="#272727" x="695.4" y="416.3" width="36.6" height="24.65" shape-rendering="crispEdges"/><rect fill="#272727" x="732" y="416.3" width="195.2" height="24.65" shape-rendering="crispEdges"/><rect fill="#272727" x="927.2" y="416.3" width="24.4" height="24.65" shape-rendering="crispEdges"/><rect fill="#000000" x="951.6" y="416.3" width="24.4" height="24.65" shape-rendering="crispEdges"/><rect fill="#272727" x="0" y="440.7" width="951.6" height="24.65" shape-rendering="crispEdges"/><rect fill="#000000" x="951.6" y="440.7" width="24.4" height="24.65" shape-rendering="crispEdges"/><rect fill="#272727" x="0" y="465.1" width="951.6" height="24.65" shape-rendering="crispEdges"/><rect fill="#000000" x="951.6" y="465.1" width="24.4" height="24.65" shape-rendering="crispEdges"/><rect fill="#272727" x="0" y="489.5" width="24.4" height="24.65" shape-rendering="crispEdges"/><rect fill="#272727" x="24.4" y="489.5" width="134.2" height="24.65" shape-rendering="crispEdges"/><rect fill="#272727" x="158.6" y="489.5" width="317.2" height="24.65" shape-rendering="crispEdges"/><rect fill="#272727" x="475.8" y="489.5" width="146.4" height="24.65" shape-rendering="crispEdges"/><rect fill="#272727" x="622.2" y="489.5" width="73.2" height="24.65" shape-rendering="crispEdges"/><rect fill="#272727" x="695.4" y="489.5" width="0" height="24.65" shape-rendering="crispEdges"/><rect fill="#272727" x="695.4" y="489.5" width="36.6" height="24.65" shape-rendering="crispEdges"/><rect fill="#272727" x="732" y="489.5" width="195.2" height="24.65" shape-rendering="crispEdges"/><rect fill="#272727" x="927.2" y="489.5" width="24.4" height="24.65" shape-rendering="crispEdges"/><rect fill="#000000" x="951.6" y="489.5" width="24.4" height="24.65" shape-rendering="crispEdges"/><rect fill="#272727" x="0" y="513.9" width="951.6" height="24.65" shape-rendering="crispEdges"/><rect fill="#000000" x="951.6" y="513.9" width="24.4" height="24.65" shape-rendering="crispEdges"/><rect fill="#272727" x="0" y="538.3" width="951.6" height="24.65" shape-rendering="crispEdges"/><rect fill="#000000" x="951.6" y="538.3" width="24.4" height="24.65" shape-rendering="crispEdges"/><rect fill="#272727" x="0" y="562.7" width="24.4" height="24.65" shape-rendering="crispEdges"/><rect fill="#272727" x="24.4" y="562.7" width="61" height="24.65" shape-rendering="crispEdges"/><rect fill="#272727" x="85.4" y="562.7" width="390.4" height="24.65" shape-rendering="crispEdges"/><rect fill="#272727" x="475.8" y="562.7" width="146.4" height="24.65" shape-rendering="crispEdges"/><rect fill="#272727" x="622.2" y="562.7" width="73.2" height="24.65" shape-rendering="crispEdges"/><rect fill="#272727" x="695.4" y="562.7" width="0" height="24.65" shape-rendering="crispEdges"/><rect fill="#272727" x="695.4" y="562.7" width="36.6" height="24.65" shape-rendering="crispEdges"/><rect fill="#272727" x="732" y="562.7" width="195.2" height="24.65" shape-rendering="crispEdges"/><rect fill="#272727" x="927.2" y="562.7" width="24.4" height="24.65" shape-rendering="crispEdges"/><rect fill="#000000" x="951.6" y="562.7" width="24.4" height="24.65" shape-rendering="crispEdges"/><rect fill="#242f38" x="0" y="587.1" width="36.6" height="24.65" shape-rendering="crispEdges"/><rect fill="#242f38" x="36.6" y="587.1" width="85.4" height="24.65" shape-rendering="crispEdges"/><rect fill="#242f38" x="122" y="587.1" width="48.8" height="24.65" shape-rendering="crispEdges"/><rect fill="#242f38" x="170.8" y="587.1" width="61" height="24.65" shape-rendering="crispEdges"/><rect fill="#242f38" x="231.8" y="587.1" width="597.8" height="24.65" shape-rendering="crispEdges"/><rect fill="#242f38" x="829.6" y="587.1" width="12.2" height="24.65" shape-rendering="crispEdges"/><rect fill="#242f38" x="841.8" y="587.1" width="24.4" height="24.65" shape-rendering="crispEdges"/><rect fill="#242f38" x="866.2" y="587.1" width="97.6" height="24.65" shape-rendering="crispEdges"/><rect fill="#242f38" x="963.8" y="587.1" width="12.2" height="24.65" shape-rendering="crispEdges"/>
    <g class="terminal-295116995-matrix">
    <text class="terminal-295116995-r2" x="12.2" y="20" textLength="12.2" clip-path="url(#terminal-295116995-line-0)">⭘</text><text class="terminal-295116995-r2" x="366" y="20" textLength="207.4" clip-path="url(#terminal-295116995-line-0)">PruneEnvironments</text><text class="terminal-295116995-r1" x="976" y="20" textLength="12.2" clip-path="url(#terminal-295116995-line-0)">
</text><text class="terminal-295116995-r1" x="976" y="44.4" textLength="12.2" clip-path="url(#terminal-295116995-line-1)">
</text><text class="terminal-295116995-r3" x="24.4" y="68.8" textLength="927.2" clip-path="url(#terminal-295116995-line-2)">&#160;&#160;&#160;&#160;&#160;&#160;&#160;&#160;&#160;&#160;&#160;&#160;Please&#160;select&#160;an&#160;environment&#160;and&#160;press&#160;&#x27;d&#x27;&#160;to&#160;delete&#160;&#160;&#160;&#160;&#160;&#160;&#160;&#160;&#160;&#160;&#160;&#160;</text><text class="terminal-295116995-r1" x="976" y="68.8" textLength="12.2" clip-path="url(#terminal-295116995-line-2)">
</text><text class="terminal-295116995-r1" x="976" y="93.2" textLength="12.2" clip-path="url(#terminal-295116995-line-3)">
</text><text class="terminal-295116995-r1" x="976" y="117.6" textLength="12.2" clip-path="url(#terminal-295116995-line-4)">
</text><text class="terminal-295116995-r5" x="24.4" y="142" textLength="231.8" clip-path="url(#terminal-295116995-line-5)">and_another_old_env</text><text class="terminal-295116995-r5" x="475.8" y="142" textLength="146.4" clip-path="url(#terminal-295116995-line-5)">Dec&#160;19,&#160;2024</text><text class="terminal-295116995-r5" x="695.4" y="142" textLength="85.4" clip-path="url(#terminal-295116995-line-5)">Deleted</text><text class="terminal-295116995-r1" x="976" y="142" textLength="12.2" clip-path="url(#terminal-295116995-line-5)">
</text><text class="terminal-295116995-r1" x="976" y="166.4" textLength="12.2" clip-path="url(#terminal-295116995-line-6)">
</text><text class="terminal-295116995-r1" x="976" y="190.8" textLength="12.2" clip-path="url(#terminal-295116995-line-7)">
</text><text class="terminal-295116995-r5" x="24.4" y="215.2" textLength="183" clip-path="url(#terminal-295116995-line-8)">another_old_env</text><text class="terminal-295116995-r5" x="475.8" y="215.2" textLength="146.4" clip-path="url(#terminal-295116995-line-8)">Dec&#160;19,&#160;2024</text><text class="terminal-295116995-r5" x="695.4" y="215.2" textLength="97.6" clip-path="url(#terminal-295116995-line-8)">Deleting</text><text class="terminal-295116995-r5" x="793" y="215.2" textLength="36.6" clip-path="url(#terminal-295116995-line-8)">...</text><text class="terminal-295116995-r6" x="951.6" y="215.2" textLength="24.4" clip-path="url(#terminal-295116995-line-8)">▇▇</text><text class="terminal-295116995-r1" x="976" y="215.2" textLength="12.2" clip-path="url(#terminal-295116995-line-8)">
</text><text class="terminal-295116995-r1" x="976" y="239.6" textLength="12.2" clip-path="url(#terminal-295116995-line-9)">
</text><text class="terminal-295116995-r1" x="976" y="264" textLength="12.2" clip-path="url(#terminal-295116995-line-10)">
</text><text class="terminal-295116995-r7" x="24.4" y="288.4" textLength="231.8" clip-path="url(#terminal-295116995-line-11)">canvas-course-tools</text><text class="terminal-295116995-r7" x="475.8" y="288.4" textLength="146.4" clip-path="url(#terminal-295116995-line-11)">Aug&#160;30,&#160;2024</text><text class="terminal-295116995-r1" x="976" y="288.4" textLength="12.2" clip-path="url(#terminal-295116995-line-11)">
</text><text class="terminal-295116995-r1" x="976" y="312.8" textLength="12.2" clip-path="url(#terminal-295116995-line-12)">
</text><text class="terminal-295116995-r1" x="976" y="337.2" textLength="12.2" clip-path="url(#terminal-295116995-line-13)">
</text><text class="terminal-295116995-r2" x="24.4" y="361.6" textLength="97.6" clip-path="url(#terminal-295116995-line-14)">designer</text><text class="terminal-295116995-r2" x="475.8" y="361.6" textLength="146.4" clip-path="url(#terminal-295116995-line-14)">Nov&#160;29,&#160;2024</text><text class="terminal-295116995-r1" x="976" y="361.6" textLength="12.2" clip-path="url(#terminal-295116995-line-14)">
</text><text class="terminal-295116995-r1" x="976" y="386" textLength="12.2" clip-path="url(#terminal-295116995-line-15)">
</text><text class="terminal-295116995-r1" x="976" y="410.4" textLength="12.2" clip-path="url(#terminal-295116995-line-16)">
</text><text class="terminal-295116995-r2" x="24.4" y="434.8" textLength="48.8" clip-path="url(#terminal-295116995-line-17)">ecpc</text><text class="terminal-295116995-r2" x="475.8" y="434.8" textLength="146.4" clip-path="url(#terminal-295116995-line-17)">Sep&#160;30,&#160;2024</text><text class="terminal-295116995-r1" x="976" y="434.8" textLength="12.2" clip-path="url(#terminal-295116995-line-17)">
</text><text class="terminal-295116995-r1" x="976" y="459.2" textLength="12.2" clip-path="url(#terminal-295116995-line-18)">
</text><text class="terminal-295116995-r1" x="976" y="483.6" textLength="12.2" clip-path="url(#terminal-295116995-line-19)">
</text><text class="terminal-295116995-r2" x="24.4" y="508" textLength="134.2" clip-path="url(#terminal-295116995-line-20)">ecpcgrading</text><text class="terminal-295116995-r2" x="475.8" y="508" textLength="146.4" clip-path="url(#terminal-295116995-line-20)">Dec&#160;01,&#160;2024</text><text class="terminal-295116995-r1" x="976" y="508" textLength="12.2" clip-path="url(#terminal-295116995-line-20)">
</text><text class="terminal-295116995-r1" x="976" y="532.4" textLength="12.2" clip-path="url(#terminal-295116995-line-21)">
</text><text class="terminal-295116995-r1" x="976" y="556.8" textLength="12.2" clip-path="url(#terminal-295116995-line-22)">
</text><text class="terminal-295116995-r2" x="24.4" y="581.2" textLength="61" clip-path="url(#terminal-295116995-line-23)">empty</text><text class="terminal-295116995-r2" x="475.8" y="581.2" textLength="146.4" clip-path="url(#terminal-295116995-line-23)">Nov&#160;18,&#160;2024</text><text class="terminal-295116995-r1" x="976" y="581.2" textLength="12.2" clip-path="url(#terminal-295116995-line-23)">
</text><text class="terminal-295116995-r8" x="0" y="605.6" textLength="36.6" clip-path="url(#terminal-295116995-line-24)">&#160;d&#160;</text><text class="terminal-295116995-r2" x="36.6" y="605.6" textLength="85.4" clip-path="url(#terminal-295116995-line-24)">Delete&#160;</text><text class="terminal-295116995-r8" x="122" y="605.6" textLength="48.8" clip-path="url(#terminal-295116995-line-24)">&#160;^q&#160;</text><text class="terminal-295116995-r2" x="170.8" y="605.6" textLength="61" clip-path="url(#terminal-295116995-line-24)">Quit&#160;</text><text class="terminal-295116995-r9" x="829.6" y="605.6" textLength="12.2" clip-path="url(#terminal-295116995-line-24)">▏</text><text class="terminal-295116995-r8" x="841.8" y="605.6" textLength="24.4" clip-path="url(#terminal-295116995-line-24)">^p</text><text class="terminal-295116995-r2" x="866.2" y="605.6" textLength="97.6" clip-path="url(#terminal-295116995-line-24)">&#160;palette</text>
    </g>
    </g>
</svg>
